<?xml version="1.0" standalone="no"?><!DOCTYPE svg PUBLIC "-//W3C//DTD SVG 1.1//EN" "http://www.w3.org/Graphics/SVG/1.1/DTD/svg11.dtd"><svg t="1616394921796" class="icon" viewBox="0 0 1026 1024" version="1.1" xmlns="http://www.w3.org/2000/svg" p-id="2503" xmlns:xlink="http://www.w3.org/1999/xlink" width="200.390625" height="200"><defs><style type="text/css"></style></defs><path d="M781.722331 856.502857a60.708571 60.708571 0 0 1-60.854857 60.489143H282.449189a60.781714 60.781714 0 0 1-60.854858-60.489143V213.869714h560.201143v642.633143zM343.230903 105.252571c0-7.021714 5.485714-12.434286 12.507428-12.434285h292.571429c7.021714 0 12.434286 5.412571 12.434286 12.434285v36.425143h-317.44V105.325714z m621.056 36.425143H733.374903V105.325714c0-46.592-38.253714-84.626286-85.065143-84.626285h-292.571429A84.992 84.992 0 0 0 270.673189 105.325714v36.425143H38.956617a36.571429 36.571429 0 1 0 0 72.996572h109.275429v641.828571a133.851429 133.851429 0 0 0 134.144 133.485714h438.491428a133.851429 133.851429 0 0 0 134.217143-133.485714V213.869714h109.202286a36.571429 36.571429 0 0 0 36.644571-36.498285 35.84 35.84 0 0 0-36.644571-35.693715z m-462.628572 665.892572a36.571429 36.571429 0 0 0 36.644572-36.498286V383.049143a36.571429 36.571429 0 0 0-36.644572-36.425143 36.571429 36.571429 0 0 0-36.717714 36.425143v388.022857a36.571429 36.571429 0 0 0 36.717714 36.571429z m-170.861714 0a36.571429 36.571429 0 0 0 36.644572-36.498286V383.049143a36.571429 36.571429 0 0 0-36.644572-36.425143 36.571429 36.571429 0 0 0-36.717714 36.425143v388.022857c0.804571 20.187429 17.188571 36.571429 36.717714 36.571429z m341.723429 0a36.571429 36.571429 0 0 0 36.644571-36.498286V383.049143a36.571429 36.571429 0 0 0-36.644571-36.425143 36.571429 36.571429 0 0 0-36.717715 36.425143v388.022857a36.571429 36.571429 0 0 0 36.717715 36.571429z" p-id="2504" fill="#20A0FF"></path></svg>