<?xml version="1.0" standalone="no"?><!DOCTYPE svg PUBLIC "-//W3C//DTD SVG 1.1//EN" "http://www.w3.org/Graphics/SVG/1.1/DTD/svg11.dtd"><svg t="1617349350094" class="icon" viewBox="0 0 1024 1024" version="1.1" xmlns="http://www.w3.org/2000/svg" p-id="4928" xmlns:xlink="http://www.w3.org/1999/xlink" width="55" height="55"><defs><style type="text/css"></style></defs><path d="M116.408231 1023.744064a36.59885 36.59885 0 0 1-36.513538-36.59885V36.513538c0-20.218945 16.379905-36.59885 36.513538-36.59885h533.370658c9.725569 0 19.024577 3.83904 25.849537 10.749313l271.121553 271.036241c6.82496 6.82496 10.664001 16.209281 10.664001 25.934849v679.510123a36.59885 36.59885 0 0 1-36.513538 36.59885h-804.492211z m767.89336-73.112389V365.561943h-255.936016a36.59885 36.59885 0 0 1-36.59885-36.513538v-255.936016H153.007082v877.519286h731.294509z m-30.285762-658.182121L664.879114 103.312838v189.136716h189.136715z" p-id="4929" fill="#a9a9a9"></path></svg>