<?xml version="1.0" standalone="no"?><!DOCTYPE svg PUBLIC "-//W3C//DTD SVG 1.1//EN" "http://www.w3.org/Graphics/SVG/1.1/DTD/svg11.dtd"><svg t="1617347711372" class="icon" viewBox="0 0 1024 1024" version="1.1" xmlns="http://www.w3.org/2000/svg" p-id="4742" xmlns:xlink="http://www.w3.org/1999/xlink" width="55" height="55"><defs><style type="text/css"></style></defs><path d="M999.883947 362.666667a101.376 101.376 0 0 0-64.938667-35.669334v-39.253333c0-61.269333-49.493333-111.018667-110.762667-111.445333H529.95328L486.43328 113.493333a79.274667 79.274667 0 0 0-61.44-30.037333H49.355947a65.706667 65.706667 0 0 0-49.322667 65.706667v682.069333c1.194667 61.269333 51.626667 110.08 112.896 109.226667h714.154667a127.829333 127.829333 0 0 0 123.562666-99.242667l71.424-389.205333a109.226667 109.226667 0 0 0-22.186666-89.258667zM71.45728 154.965333h357.12l64.938667 92.842667h332.117333c21.845333 0.426667 39.253333 18.176 39.253333 40.021333v37.888H105.078613c-9.386667 0.170667-18.773333 1.621333-27.904 4.266667H71.45728v-174.933333z m880.64 285.696l-71.424 389.205334a57.173333 57.173333 0 0 1-53.589333 41.472h-714.24a40.021333 40.021333 0 0 1-41.386667-40.704V424.106667a29.354667 29.354667 0 0 1 31.488-27.136h814.08a32.853333 32.853333 0 0 1 26.453333 11.349333c7.68 8.874667 10.837333 20.736 8.533334 32.170667z" p-id="4743" fill="#a9a9a9"></path></svg>