<?xml version="1.0" standalone="no"?><!DOCTYPE svg PUBLIC "-//W3C//DTD SVG 1.1//EN" "http://www.w3.org/Graphics/SVG/1.1/DTD/svg11.dtd"><svg t="1618563412444" class="icon" viewBox="0 0 1092 1024" version="1.1" xmlns="http://www.w3.org/2000/svg" p-id="3228" xmlns:xlink="http://www.w3.org/1999/xlink" width="213.28125" height="200"><defs><style type="text/css"></style></defs><path d="M612.625067 531.797333a156.808533 156.808533 0 1 0 313.685333 0 156.808533 156.808533 0 0 0-313.685333 0zM1060.727467 979.899733a291.293867 291.293867 0 1 0-582.519467 0" fill="#3CD0BE" p-id="3229"></path><path d="M949.316267 294.2976a34.4064 34.4064 0 0 1-34.065067-34.679467v-57.821866c0-63.6928-45.738667-115.643733-101.9904-115.643734H200.977067c-56.251733 0-102.058667 51.882667-102.058667 115.643734v601.2928c0 63.761067 45.806933 115.643733 102.058667 115.643733h136.055466c18.705067 0 34.065067 15.496533 34.065067 34.747733 0 19.114667-15.223467 34.679467-34.133333 34.679467H201.045333c-93.661867 0-170.052267-83.012267-170.052266-185.002667V201.9328c0-101.9904 76.253867-185.002667 170.052266-185.002667h612.215467c93.7984 0 170.052267 83.012267 170.052267 185.002667v57.7536c0 19.182933-15.223467 34.679467-33.928534 34.679467zM166.980267 537.258667c0-19.114667 15.291733-34.747733 33.928533-34.747734h204.049067c18.8416 0 34.065067 15.5648 34.065066 34.747734 0 19.114667-15.223467 34.679467-34.065066 34.679466H200.9088a34.474667 34.474667 0 0 1-33.928533-34.679466z m0-208.145067c0-19.114667 15.291733-34.679467 33.928533-34.679467H473.088c18.773333 0 33.9968 15.5648 33.9968 34.679467 0 19.182933-15.223467 34.679467-33.9968 34.679467H200.977067a34.4064 34.4064 0 0 1-33.9968-34.679467z m493.431466 355.874133a208.896 208.896 0 0 1-85.333333-168.618666c0-114.688 91.613867-208.0768 203.9808-208.0768 112.4352 0 204.049067 93.457067 204.049067 208.145066 0.068267 66.56-31.607467 129.2288-85.333334 168.618667 108.544 55.0912 187.323733 177.425067 187.323734 282.282667a34.338133 34.338133 0 0 1-34.065067 34.679466 34.338133 34.338133 0 0 1-33.928533-34.679466c0-95.914667-106.7008-242.824533-238.114134-242.824534s-238.045867 146.8416-238.045866 242.756267a34.338133 34.338133 0 0 1-34.133334 34.679467 34.338133 34.338133 0 0 1-33.860266-34.679467c0.136533-104.8576 78.916267-227.191467 187.460266-282.282667z m254.839467-168.618666c0-76.458667-60.962133-138.6496-136.055467-138.6496s-135.9872 62.190933-135.9872 138.717866 60.962133 138.717867 136.055467 138.717867 135.9872-62.122667 135.9872-138.717867z" fill="#FFFFFF" p-id="3230"></path></svg>