<?xml version="1.0" standalone="no"?><!DOCTYPE svg PUBLIC "-//W3C//DTD SVG 1.1//EN" "http://www.w3.org/Graphics/SVG/1.1/DTD/svg11.dtd"><svg t="1618568301499" class="icon" viewBox="0 0 1092 1024" version="1.1" xmlns="http://www.w3.org/2000/svg" p-id="4386" xmlns:xlink="http://www.w3.org/1999/xlink" width="213.28125" height="200"><defs><style type="text/css"></style></defs><path d="M918.459733 278.528a34.4064 34.4064 0 0 1-34.065066-34.679467v-57.821866c0-63.6928-45.738667-115.575467-101.9904-115.575467H170.120533c-56.251733 0-102.058667 51.882667-102.058666 115.575467v601.361066c0 63.6928 45.806933 115.575467 102.058666 115.575467h136.055467c18.705067 0 34.065067 15.496533 34.065067 34.747733 0 19.114667-15.223467 34.679467-34.133334 34.679467H170.1888c-93.661867 0-170.052267-83.012267-170.052267-185.002667V186.1632C0 84.104533 76.322133 1.092267 170.120533 1.092267h612.215467c93.7984 0 170.052267 83.012267 170.052267 185.002666v57.821867c0 19.114667-15.223467 34.679467-33.928534 34.679467zM136.123733 521.489067c0-19.114667 15.291733-34.679467 33.928534-34.679467H374.101333c18.8416 0 34.065067 15.496533 34.065067 34.679467 0 19.114667-15.223467 34.679467-34.065067 34.679466H170.052267a34.474667 34.474667 0 0 1-33.928534-34.679466z m0-208.145067c0-19.114667 15.291733-34.679467 33.928534-34.679467h272.1792c18.773333 0 33.9968 15.5648 33.9968 34.679467 0 19.182933-15.223467 34.679467-33.9968 34.679467H170.120533a34.4064 34.4064 0 0 1-33.9968-34.679467z m493.431467 355.9424a208.896 208.896 0 0 1-85.333333-168.618667c0-114.688 91.613867-208.145067 203.9808-208.145066 112.4352 0 204.049067 93.457067 204.049066 208.213333 0 66.491733-31.607467 129.160533-85.333333 168.5504 108.544 55.0912 187.323733 177.425067 187.323733 282.282667a34.338133 34.338133 0 0 1-34.065066 34.679466 34.338133 34.338133 0 0 1-33.928534-34.679466c0-95.914667-106.7008-242.756267-238.114133-242.756267s-238.045867 146.773333-238.045867 242.688a34.338133 34.338133 0 0 1-34.133333 34.679467 34.338133 34.338133 0 0 1-33.860267-34.679467c0.136533-104.8576 78.916267-227.191467 187.460267-282.282667z m254.839467-168.618667c0-76.458667-60.962133-138.717867-136.055467-138.717866S612.352 424.1408 612.352 500.599467c0 76.526933 60.962133 138.717867 136.055467 138.717866s135.9872-62.122667 135.9872-138.717866z" p-id="4387"></path></svg>