<?xml version="1.0" standalone="no"?><!DOCTYPE svg PUBLIC "-//W3C//DTD SVG 1.1//EN" "http://www.w3.org/Graphics/SVG/1.1/DTD/svg11.dtd"><svg t="1618568574529" class="icon" viewBox="0 0 1170 1024" version="1.1" xmlns="http://www.w3.org/2000/svg" p-id="4643" xmlns:xlink="http://www.w3.org/1999/xlink" width="228.515625" height="200"><defs><style type="text/css"></style></defs><path d="M123.318857 637.074286a36.644571 36.644571 0 0 1-36.571428-36.644572V437.76a36.644571 36.644571 0 1 1 73.216 0V600.502857a36.644571 36.644571 0 0 1-36.644572 36.571429z m775.606857 379.830857h-629.028571a183.442286 183.442286 0 0 1-183.222857-183.222857v-23.698286a36.644571 36.644571 0 1 1 73.289143 0v23.698286c0 60.562286 49.298286 109.933714 109.933714 109.933714h629.028571c60.562286 0 109.933714-49.371429 109.933715-109.933714V614.107429a36.644571 36.644571 0 0 1 73.289142 0v219.428571a183.442286 183.442286 0 0 1-183.222857 183.369143z m146.578286-587.117714a36.644571 36.644571 0 0 1-36.644571-36.644572v-209.92c0-60.562286-49.371429-109.933714-109.933715-109.933714h-629.028571c-60.635429 0-109.933714 49.371429-109.933714 109.933714v17.481143a36.644571 36.644571 0 0 1-73.289143 0v-17.481143A183.442286 183.442286 0 0 1 269.897143 0.073143h629.028571a183.442286 183.442286 0 0 1 183.222857 183.149714v209.92a36.644571 36.644571 0 0 1-36.644571 36.644572z" fill="#808CA3" p-id="4644"></path><path d="M1043.748571 630.930286c-69.339429 0-125.805714-56.466286-125.805714-125.805715s56.466286-125.805714 125.805714-125.805714c69.266286 0 125.805714 56.466286 125.805715 125.805714s-56.466286 125.805714-125.805715 125.805715z m0-192.950857a67.145143 67.145143 0 1 0 0.219429 134.363428 67.145143 67.145143 0 0 0-0.219429-134.363428zM210.505143 356.498286H37.595429a36.644571 36.644571 0 1 1 0-73.289143h172.836571a36.644571 36.644571 0 0 1 0.073143 73.289143z m601.746286 0H402.285714a36.644571 36.644571 0 1 1 0-73.289143h409.965715a36.644571 36.644571 0 1 1 0 73.289143z m0 199.241143H402.285714a36.644571 36.644571 0 1 1 0-73.289143h409.965715a36.644571 36.644571 0 1 1 0 73.289143z m0 185.490285H402.285714a36.644571 36.644571 0 1 1 0-73.289143h409.965715a36.644571 36.644571 0 1 1 0 73.289143z m-601.746286-5.705143H37.595429a36.644571 36.644571 0 1 1 0-73.289142h172.836571a36.644571 36.644571 0 0 1 0.073143 73.289142z" fill="#808CA3" p-id="4645"></path></svg>