<?xml version="1.0" standalone="no"?><!DOCTYPE svg PUBLIC "-//W3C//DTD SVG 1.1//EN" "http://www.w3.org/Graphics/SVG/1.1/DTD/svg11.dtd"><svg t="1618563383912" class="icon" viewBox="0 0 1170 1024" version="1.1" xmlns="http://www.w3.org/2000/svg" p-id="2577" xmlns:xlink="http://www.w3.org/1999/xlink" width="228.515625" height="200"><defs><style type="text/css"></style></defs><path d="M585.216 282.989714h435.273143v459.629715H585.216z" fill="#3CD0BE" p-id="2578"></path><path d="M898.925714 0a183.442286 183.442286 0 0 1 183.222857 183.222857V385.462857a126.025143 126.025143 0 0 1 87.405715 119.734857c0 55.954286-36.717714 103.497143-87.405715 119.808v208.676572a183.442286 183.442286 0 0 1-183.222857 183.296h-629.028571a183.442286 183.442286 0 0 1-183.222857-183.222857v-23.698286a36.644571 36.644571 0 1 1 73.289143 0v23.698286c0 60.562286 49.298286 109.933714 109.933714 109.933714h629.028571c60.562286 0 109.933714-49.371429 109.933715-109.933714l-0.073143-207.725715a126.098286 126.098286 0 0 1-90.843429-120.832c0-57.197714 38.4-105.618286 90.843429-120.832V183.222857c0-60.562286-49.298286-109.933714-109.860572-109.933714h-629.028571c-60.635429 0-109.933714 49.371429-109.933714 109.933714v17.481143a36.644571 36.644571 0 0 1-73.289143 0v-17.481143A183.442286 183.442286 0 0 1 269.897143 0.073143h629.028571z m-86.674285 667.940571a36.644571 36.644571 0 1 1 0 73.289143H402.285714a36.644571 36.644571 0 1 1 0-73.289143h409.965715z m-601.819429-5.705142a36.644571 36.644571 0 0 1 0.073143 73.289142H37.595429a36.644571 36.644571 0 1 1 0-73.289142h172.836571z m-87.113143-261.12c20.260571 0 36.644571 16.457143 36.644572 36.644571V600.502857a36.644571 36.644571 0 0 1-73.289143 0V437.76c0-20.187429 16.384-36.571429 36.644571-36.571429z m920.429714 36.864a67.145143 67.145143 0 1 0 0.219429 134.363428 67.145143 67.145143 0 0 0-0.219429-134.363428z m-231.497142 44.470857a36.644571 36.644571 0 1 1 0 73.289143H402.285714a36.644571 36.644571 0 1 1 0-73.289143h409.965715zM210.432 283.209143a36.644571 36.644571 0 0 1 0.073143 73.289143H37.595429a36.644571 36.644571 0 1 1 0-73.289143h172.836571z m601.819429 0a36.644571 36.644571 0 1 1 0 73.289143H402.285714a36.644571 36.644571 0 1 1 0-73.289143h409.965715z" fill="#FFFFFF" p-id="2579"></path></svg>