<?xml version="1.0" standalone="no"?><!DOCTYPE svg PUBLIC "-//W3C//DTD SVG 1.1//EN" "http://www.w3.org/Graphics/SVG/1.1/DTD/svg11.dtd"><svg t="1618563378249" class="icon" viewBox="0 0 1024 1024" version="1.1" xmlns="http://www.w3.org/2000/svg" p-id="2448" xmlns:xlink="http://www.w3.org/1999/xlink" width="200" height="200"><defs><style type="text/css"></style></defs><path d="M519.872 7.744c33.856 0 66.88 1.92 98.688 5.696-217.984 27.456-382.464 152.128-382.464 301.824 0 73.472 39.68 140.928 105.792 193.792-85.632-19.136-158.72-51.648-210.816-92.864 35.328 46.08 94.08 85.376 168 113.408l-3.392 7.424a146.432 146.432 0 0 0-12.288 58.24c0 74.944 59.264 141.76 151.744 185.088-76.352-7.616-146.368-25.28-205.248-50.496a550.4 550.4 0 0 0 110.464 46.08l-1.088 2.752a144.64 144.64 0 0 0-8.576 48.832c0 77.056 62.656 145.536 159.552 188.736C242.816 1007.872 46.848 894.72 46.848 756.608c0-41.728 17.856-81.152 49.6-116.096C64.64 605.44 46.848 566.08 46.848 524.288c0-46.592 22.272-90.304 61.312-128.192C69.12 358.4 46.848 314.56 46.848 267.904c0-143.68 211.84-260.16 473.024-260.16z" fill="#3CD0BE" p-id="2449"></path><path d="M512 0c259.456 0 473.92 121.984 473.92 282.944 0 41.28-14.08 80-39.36 114.688 25.664 35.2 39.36 73.984 39.36 114.368 0 41.216-14.08 79.936-39.36 114.688 25.664 35.2 39.36 73.984 39.36 114.368C985.92 902.016 771.52 1024 512 1024 252.544 1024 38.08 902.016 38.08 741.056c0-40.384 13.696-79.232 39.36-114.496C52.096 591.872 38.08 553.216 38.08 512c0-40.384 13.696-79.232 39.36-114.56C52.096 362.88 38.08 324.224 38.08 283.008 38.08 121.984 252.48 0 512 0zM366.08 781.504l-0.64-0.064a707.84 707.84 0 0 1-33.152-7.168l-5.12-1.28a679.68 679.68 0 0 1-71.616-22.208l-3.648-1.472c-51.584-19.84-96.192-45.696-131.2-76.032a126.848 126.848 0 0 0-20.672 67.776c0 117.312 182.208 220.928 411.968 220.928 229.76 0 411.968-103.616 411.968-220.928a124.16 124.16 0 0 0-15.872-59.584l-4.864-8.192a391.936 391.936 0 0 1-66.88 46.208l-3.264 1.792c-10.048 5.504-20.48 10.688-31.232 15.616l-2.56 1.088a475.328 475.328 0 0 1-14.144 6.144l-3.712 1.536c-3.84 1.6-7.68 3.072-11.52 4.544l-3.968 1.472 3.968-1.472c-44.16 16.896-93.376 29.44-145.856 36.928l-1.152 0.128a648.96 648.96 0 0 1-17.216 2.24l-5.888 0.64A774.208 774.208 0 0 1 512 795.008c-6.912 0-13.76-0.064-20.608-0.256l20.608 0.256a817.344 817.344 0 0 1-62.72-2.368l-2.048-0.192c-19.712-1.6-39.04-3.84-57.92-6.848l-6.208-1.024a152.704 152.704 0 0 1-4.288-0.64l-12.672-2.368z m-126.976-105.152l7.296 3.456 7.36 3.264-7.296-3.264c4.288 1.92 8.704 3.904 13.184 5.76l-5.888-2.496a486.4 486.4 0 0 0 14.784 6.208l-8.96-3.648 13.312 5.376-4.352-1.728c6.592 2.624 13.312 5.184 20.16 7.616l14.4 4.864a569.664 569.664 0 0 0 16.896 5.12l-9.536-2.816c5.312 1.6 10.624 3.2 16 4.672L320 706.88c5.248 1.536 10.56 3.008 15.936 4.352l-9.472-2.496c5.44 1.472 10.88 2.944 16.448 4.288l-7.04-1.792c5.696 1.472 11.392 2.88 17.152 4.224l-10.112-2.432c5.568 1.408 11.2 2.688 16.96 3.968l-6.848-1.536c5.376 1.216 10.688 2.368 16.128 3.456l-9.28-1.92a667.968 667.968 0 0 0 52.672 9.28l-11.968-1.728 14.016 2.048-2.048-0.32a718.464 718.464 0 0 0 40.64 4.352l-2.752-0.192 17.856 1.28-15.104-1.088c7.04 0.576 14.208 1.024 21.44 1.408l-6.4-0.384c5.504 0.32 10.88 0.64 16.448 0.832l-10.048-0.448c6.08 0.32 12.288 0.512 18.56 0.64l-8.512-0.192c9.024 0.32 18.176 0.448 27.328 0.448l18.88-0.192a753.728 753.728 0 0 0 18.56-0.704l-10.112 0.384c5.504-0.192 11.008-0.448 16.448-0.768l-6.4 0.384c7.168-0.384 14.336-0.832 21.376-1.408l-14.976 1.024c5.952-0.32 11.904-0.768 17.856-1.28l-2.88 0.256a720.832 720.832 0 0 0 40.704-4.352l-2.048 0.256 14.08-1.984-12.032 1.728a679.296 679.296 0 0 0 52.672-9.28l-9.28 1.92c5.312-1.024 10.56-2.176 15.744-3.392l-6.4 1.472c5.952-1.28 11.84-2.688 17.728-4.16l-11.328 2.688c5.76-1.28 11.392-2.688 16.96-4.096l-5.632 1.408c5.376-1.28 10.624-2.688 15.872-4.16l-10.24 2.752 16.448-4.48-6.208 1.728a588.8 588.8 0 0 0 15.68-4.608l-9.472 2.816a556.672 556.672 0 0 0 44.992-14.976l-3.776 1.344c4.48-1.664 8.768-3.392 13.12-5.12l-9.344 3.776 13.824-5.568-4.48 1.792 13.44-5.76-8.96 3.968a472.32 472.32 0 0 0 14.08-6.144l-5.12 2.24a417.92 417.92 0 0 0 49.536-25.856l-0.64 0.32a345.408 345.408 0 0 0 38.016-27.136l-1.344 1.152a252.8 252.8 0 0 0 20.736-19.2l5.76-6.144c25.728-28.8 40.128-60.672 40.128-93.568a124.16 124.16 0 0 0-15.872-59.52l-4.864-8.32a405.568 405.568 0 0 1-82.816 54.72l-2.88 1.408c-5.12 2.624-10.368 5.12-15.616 7.552a562.24 562.24 0 0 1-53.12 20.992 662.016 662.016 0 0 1-79.872 21.504l-5.504 1.088c-12.864 2.56-25.984 4.8-39.36 6.656l-1.152 0.192a630.656 630.656 0 0 1-17.216 2.24l-6.208 0.64c-13.568 1.536-27.328 2.688-41.28 3.456l-1.984 0.128A769.344 769.344 0 0 1 512 565.888c-14.336 0-28.48-0.32-42.496-1.088h-0.768 0.768a788.992 788.992 0 0 1-60.48-5.44l-8.64-1.28a457.28 457.28 0 0 1-10.304-1.408l-7.04-1.152a137.664 137.664 0 0 1-4.224-0.704l-12.672-2.368a729.536 729.536 0 0 1-33.92-7.168l-5.12-1.28a683.456 683.456 0 0 1-1.216-0.384c-83.2-20.8-154.368-55.296-205.12-99.392A126.848 126.848 0 0 0 100.032 512c0 33.024 14.464 64.896 40.256 93.76l5.312 5.632a276.16 276.16 0 0 0 43.136 36.096l-1.28-0.96c3.008 2.112 6.144 4.224 9.28 6.208l-8-5.248c4.416 3.008 8.96 5.888 13.568 8.768l-5.568-3.52a381.248 381.248 0 0 0 42.368 23.616zM512 61.952c-229.76 0-411.968 103.68-411.968 220.992 0 32.96 14.4 64.768 40.064 93.568l5.504 5.76a252.928 252.928 0 0 0 20.48 19.072l-1.152-1.024a312.832 312.832 0 0 0 37.248 26.88l-3.584-2.304a396.352 396.352 0 0 0 47.872 25.856l-7.424-3.456 14.72 6.784-7.296-3.328c4.48 2.048 9.024 4.096 13.696 6.016l-6.4-2.688 12.096 5.12-5.76-2.432c4.928 2.112 9.984 4.096 15.04 6.08l-9.28-3.712c7.424 3.072 15.04 5.952 22.848 8.704l14.4 4.864a569.6 569.6 0 0 0 16.896 5.12l-9.536-2.816c5.312 1.664 10.624 3.2 16 4.672L320 477.824c5.248 1.536 10.56 3.008 15.936 4.416l-9.472-2.56c5.44 1.536 10.88 2.944 16.448 4.288l-7.04-1.728 17.152 4.16-10.112-2.432c5.568 1.408 11.2 2.752 16.96 3.968L353.024 486.4a673.28 673.28 0 0 0 62.4 11.2l-2.88-0.384c5.504 0.768 11.072 1.472 16.64 2.048l-13.76-1.664c7.36 1.024 14.784 1.92 22.336 2.56l-8.576-0.896c6.848 0.768 13.696 1.472 20.608 2.048l-12.032-1.088 15.424 1.408-3.392-0.32c6.08 0.512 12.288 0.96 18.496 1.28l-15.104-0.96c7.04 0.512 14.208 0.96 21.44 1.344l-6.4-0.32c5.504 0.256 10.88 0.576 16.448 0.768l-10.048-0.448c6.08 0.32 12.288 0.512 18.56 0.64l-8.512-0.192c9.024 0.32 18.176 0.448 27.328 0.448l18.88-0.192a753.664 753.664 0 0 0 18.56-0.704l-10.112 0.448c5.504-0.192 11.008-0.448 16.448-0.768l-6.4 0.32c7.168-0.384 14.336-0.832 21.376-1.408l-14.976 1.088 18.496-1.28-3.52 0.192c5.248-0.384 10.368-0.832 15.552-1.344l-12.032 1.088c6.848-0.576 13.696-1.28 20.48-1.984l-8.448 0.896c7.488-0.768 14.912-1.664 22.272-2.56l-13.824 1.664c5.632-0.64 11.2-1.28 16.64-2.112l-2.816 0.384a679.488 679.488 0 0 0 62.08-11.072l-6.528 1.408c6.016-1.28 11.904-2.688 17.792-4.16l-11.328 2.752c5.76-1.28 11.392-2.688 16.96-4.16l-5.632 1.408c5.376-1.28 10.624-2.688 15.872-4.16l-10.24 2.752c5.568-1.408 11.008-2.944 16.448-4.48l-6.208 1.728a588.8 588.8 0 0 0 15.68-4.544L704 477.888a556.672 556.672 0 0 0 44.992-15.04l-3.776 1.344c4.48-1.664 8.768-3.328 13.12-5.12l-9.344 3.776c4.672-1.792 9.28-3.648 13.824-5.568l-4.48 1.792a430.976 430.976 0 0 0 63.04-31.616l-0.768 0.448 5.76-3.648-4.992 3.2c4.288-2.56 8.448-5.312 12.544-8.064l-7.552 4.864a339.2 339.2 0 0 0 11.264-7.488l-3.712 2.56c3.712-2.432 7.296-4.992 10.816-7.68l-7.104 5.12c3.84-2.624 7.552-5.376 11.2-8.128l-4.096 3.072c4.544-3.392 8.96-6.784 13.12-10.304l-9.024 7.232c3.392-2.56 6.656-5.248 9.856-7.872l-0.832 0.64a252.16 252.16 0 0 0 20.224-18.752l5.76-6.144c25.728-28.8 40.128-60.608 40.128-93.568C923.968 165.632 741.76 62.08 512 62.08z m305.408 274.688a15.488 15.488 0 0 1-5.376 21.248c-55.04 32.832-128.448 54.848-209.28 62.4a15.488 15.488 0 1 1-2.88-30.848c76.48-7.168 145.472-27.84 196.288-58.176a15.488 15.488 0 0 1 21.248 5.376z m39.744-46.08l2.624 2.048 6.272 5.504-3.84-6.912a15.424 15.424 0 0 1 7.488 8.32l0.704 2.688 0.128 0.128 0.128 3.264-0.384 2.816-0.064-0.64-0.192 1.664-0.704 1.984 0.32-0.512 0.384-1.472 0.256-1.024a5.76 5.76 0 0 1-1.152 3.968l-1.344 1.6 0.96-1.6-1.28 2.048-2.368 2.24-1.28 0.896-3.84 2.176 2.176-0.96-0.96 0.704a7.04 7.04 0 0 1-3.136 1.152l-1.728-0.192-1.6-0.64a41.088 41.088 0 0 1-7.424-5.76l-3.52-3.264 4.416 8.064-2.816-1.856a15.488 15.488 0 0 1-5.184-8l-0.256-1.728-0.256-1.408 0.192-3.264 0.128-0.64c-0.512-3.456 1.344-5.312 5.248-9.088 5.12-3.904 7.168-5.44 11.904-2.24z m8.064 26.24l-2.496 1.728-0.512 0.192 1.664-1.152 1.28-0.704z m-24.96-13.888l-0.32 4.352 3.712 3.456a50.88 50.88 0 0 1-3.008-6.4l-0.32-1.408z" fill="#FFFFFF" p-id="2450"></path></svg>