<?xml version="1.0" standalone="no"?><!DOCTYPE svg PUBLIC "-//W3C//DTD SVG 1.1//EN" "http://www.w3.org/Graphics/SVG/1.1/DTD/svg11.dtd"><svg t="1618382618766" class="icon" viewBox="0 0 1024 1024" version="1.1" xmlns="http://www.w3.org/2000/svg" p-id="4742" xmlns:xlink="http://www.w3.org/1999/xlink" width="55" height="55"><defs><style type="text/css"></style></defs><path d="M676.352 515.9936c14.2848 0.1792 24.9344 7.4752 32 14.72 10.6496 7.296 31.9232 25.472 46.2336 25.6768 14.336 0.2048 36.0448-17.408 43.264-24.5248 6.5792-9.5744 18.8928-13.312 29.1072-13.824l3.328-0.0768 17.8944 0.2304 63.9488 36.6336c14.208 10.9312 21.0688 32.512 13.696 50.304-0.0512 3.584-3.7632 14.336-3.8656 21.376v1.536a56.576 56.576 0 0 0 52.48 56.3968l4.0704 0.1536h3.584c14.3104 0.1792 28.4672 14.6944 31.7952 32.64-0.0512 3.584 3.1744 32.256 10.112 50.2528-0.2816 22.1184-6.1696 46.9504-7.552 52.48l-0.2816 1.1264c-3.584 16.6912-16.4352 30.1056-29.7728 31.6672l-2.8672 0.1536h-5.0432c-31.232 0-56.576 25.2928-56.576 56.5248l0.256 5.1712c0.2816 3.8912 0.8704 7.6288 1.6896 11.1872l1.3824 5.1712c6.4512 16.7936 0.4096 36.5568-12.16 47.6928l-2.816 2.2528-64.896 34.9696c-7.2192 3.4816-10.8544 3.456-17.92 3.328-14.336-0.1792-24.9856-7.4496-32.0768-14.72-7.0144-10.8032-31.8464-29.056-46.1568-29.2352-17.92-0.256-39.68 20.9408-46.9248 28.032-7.296 10.6496-21.6576 14.0288-32.384 13.9008-5.9904-0.0512-9.472-0.1024-14.592 1.8944l-3.3536 1.4592-64-36.608c-14.1568-10.9568-21.0688-32.512-13.6704-50.3296 0.0512-3.584 3.7632-14.336 3.84-21.3504l0.0512-1.536a56.576 56.576 0 0 0-52.5312-56.4224l-4.0192-0.1536h-3.584c-14.336-0.2048-28.4928-14.6944-31.8208-32.64-3.5328-3.6096-6.7584-32.3072-6.4768-53.76 0.3328-25.088 7.8592-50.048 7.8592-53.632 3.5584-16.6656 16.4352-30.08 29.7728-31.6416l2.8672-0.1536h5.0176a56.576 56.576 0 0 0 56.4224-52.48l0.1536-3.84-0.0256-0.2048-0.2048-5.1712a76.6464 76.6464 0 0 0-1.6896-11.2128l-1.408-5.1712c-6.4512-16.7936-0.4096-36.5312 12.1856-47.6672l2.816-2.2528 68.4544-34.9184c2.5856-2.56 5.1968-3.2512 9.0624-3.4048l2.4576-0.0512zM439.6288 3.456l7.3216 0.2048c140.3904 5.5296 250.0608 120.9088 248.32 257.792-1.1008 79.0784-37.8368 150.7328-99.712 200.0384l-14.336 10.88c-32.6656 28.0832-94.0032 38.4256-136.9856 41.2672l-50.2016-0.5888c-182.656 7.7568-337.0752 171.9552-339.3536 362.24v1.7408c0 31.5392 35.8912 67.4304 67.4048 67.4304l327.3216 0.0512c10.2912 0 28.672 3.1488 28.0832 28.3648-0.5888 21.7088-18.3808 25.6-29.2608 25.6H120.8832A120.8832 120.8832 0 0 1 0 877.6448v-2.8416c2.304-179.4048 115.8144-336.384 282.0608-398.976l18.3296-6.8608-17.792-10.88C221.8752 407.0144 186.88 334.7968 188.032 255.6928 190.336 115.2512 306.688 1.792 439.68 3.4816l-0.0256-0.0256z m239.616 562.6624l-46.7968 24.448c3.4816 7.2192 6.8608 21.5808 6.7328 32.3328-0.768 57.2672-40.6784 99.712-94.464 106.1888-0.128 10.7264-3.8912 25.0112-4.0448 35.7376-0.1792 14.336 3.2256 28.7744 3.1232 35.84 53.5808 7.8848 92.3648 54.912 91.6992 108.6208-0.128 9.3696-3.0208 21.504-6.1952 29.1328l-1.3824 2.9952 42.5728 25.6c3.6608-7.1168 10.88-10.5728 18.1248-17.664 21.6832-14.0544 43.2384-20.9408 61.1328-20.7104 19.3536 0.256 35.712 6.272 54.2976 18.1248l6.2976 4.1472 17.664 18.1504 46.848-24.4736c-3.4816-7.168-6.8864-21.5552-6.7328-32.3072 0.7424-57.2672 40.6784-99.712 94.464-106.1888 0.1536-10.752 3.8912-25.0112 0.4352-35.8144 0.1792-14.336-3.2-28.7488-3.0976-35.84-53.6064-7.8848-92.416-54.912-91.6992-108.6208 0.128-9.3952 3.0208-21.504 6.1952-29.1328l1.3824-2.9696-46.1824-25.6768c-3.6352 3.584-10.8288 7.0144-18.0736 14.1056-21.6832 14.0544-39.6544 20.992-57.5488 20.736-17.92-0.256-35.7376-7.6032-57.0112-22.2208-7.1168-3.6608-14.1824-10.9312-17.7152-14.5408z m91.7248 105.0112c39.296 7.68 71.0912 40.3456 77.696 83.3792 13.44 68.1984-48.1792 128.256-116.0448 113.0752-39.2704-7.68-71.0912-40.32-77.7472-79.7952-13.3632-71.7824 48.256-131.84 116.096-116.6592z m-18.56 49.8944c-25.0624-0.3328-46.8224 20.8384-47.1296 45.9264-0.3072 25.0624 20.8896 46.848 45.9264 47.1296 25.088 0.3584 46.8224-20.736 47.1552-45.8496 0.3072-25.1136-20.8896-46.8992-45.952-47.2064zM446.6944 58.2144c-109.7984-1.2032-202.112 88.064-203.3152 197.888-1.8176 109.7728 88.064 202.0864 197.888 203.3152 109.824 1.8432 201.472-88.0896 203.3152-197.888 1.792-109.7984-88.0896-202.112-197.888-203.3152z" p-id="4743"></path></svg>