<?xml version="1.0" standalone="no"?><!DOCTYPE svg PUBLIC "-//W3C//DTD SVG 1.1//EN" "http://www.w3.org/Graphics/SVG/1.1/DTD/svg11.dtd"><svg t="1618384762104" class="icon" viewBox="0 0 1024 1024" version="1.1" xmlns="http://www.w3.org/2000/svg" p-id="5162" xmlns:xlink="http://www.w3.org/1999/xlink" width="55" height="55"><defs><style type="text/css"></style></defs><path d="M736.602162 9.315902c68.682927 0 124.878049 53.372878 124.878049 119.882927v217.787317a24.97561 24.97561 0 1 1-49.95122 0v-217.787317c0-38.312585-33.267512-69.931707-74.926829-69.931707H137.187528c-41.659317 0-74.926829 31.619122-74.926829 69.931707v759.258537c0 38.337561 33.267512 69.931707 74.926829 69.931707h392.41678a24.97561 24.97561 0 1 1 0 49.95122H137.187528c-68.682927 0-124.878049-53.372878-124.878049-119.882927v-759.258537c0-66.510049 56.195122-119.882927 124.878049-119.882927z m-38.112781 424.585366a235.29522 235.29522 0 0 1 235.29522 235.29522c0 55.995317-19.555902 107.395122-52.199024 147.780683l122.430439 122.430439a24.97561 24.97561 0 0 1-32.967805 37.413463l-2.347708-2.097951-122.430439-122.405463a234.321171 234.321171 0 0 1-147.780683 52.199024 235.29522 235.29522 0 1 1 0-470.615415z m0 49.95122a185.344 185.344 0 1 0 0 370.688 185.344 185.344 0 0 0 0-370.688z m-386.472585 174.829268a24.97561 24.97561 0 1 1 0 49.95122H162.163138a24.97561 24.97561 0 0 1 0-49.95122h149.853658z m99.902439-199.804878a24.97561 24.97561 0 1 1 0 49.95122H162.163138a24.97561 24.97561 0 0 1 0-49.95122h249.756097z m299.707317-224.780488a24.97561 24.97561 0 1 1 0 49.95122H162.163138a24.97561 24.97561 0 0 1 0-49.95122h549.463414z" p-id="5163"></path></svg>