<?xml version="1.0" standalone="no"?><!DOCTYPE svg PUBLIC "-//W3C//DTD SVG 1.1//EN" "http://www.w3.org/Graphics/SVG/1.1/DTD/svg11.dtd"><svg t="1618123314445" class="icon" viewBox="0 0 1024 1024" version="1.1" xmlns="http://www.w3.org/2000/svg" p-id="4561" xmlns:xlink="http://www.w3.org/1999/xlink" width="200" height="200"><defs><style type="text/css"></style></defs><path d="M512 0c71.314286 0 142.628571 14.482286 209.408 43.373714l238.592 103.350857v294.034286a581.558857 581.558857 0 0 1-33.792 196.315429 627.565714 627.565714 0 0 1-93.403429 171.885714 610.523429 610.523429 0 0 1-142.921142 136.338286A535.405714 535.405714 0 0 1 512 1024a534.528 534.528 0 0 1-178.468571-78.994286 614.473143 614.473143 0 0 1-142.921143-136.338285c-39.643429-51.931429-70.948571-109.714286-92.745143-171.373715a578.706286 578.706286 0 0 1-33.792-196.388571V146.724571L302.518857 43.52A526.189714 526.189714 0 0 1 512 0z m0 64a465.188571 465.188571 0 0 0-183.808 38.180571L128.292571 188.781714V441.051429c-0.146286 59.757714 9.947429 118.491429 29.988572 174.738285 19.748571 55.661714 47.762286 107.52 83.382857 154.112v0.073143a547.547429 547.547429 0 0 0 128 122.148572c43.739429 29.769143 91.648 51.931429 142.482286 65.755428a471.990857 471.990857 0 0 0 141.897143-65.536 546.816 546.816 0 0 0 127.853714-122.002286 564.297143 564.297143 0 0 0 84.114286-154.697142 514.852571 514.852571 0 0 0 30.134857-174.665143V188.708571L696.100571 102.107429A465.188571 465.188571 0 0 0 512 64z m0 90.477714c50.980571 0 100.717714 10.313143 147.602286 30.646857l150.235428 65.024v195.584c0 48.713143-8.118857 96.621714-24.502857 142.482286v0.219429a462.994286 462.994286 0 0 1-69.12 127.268571l-0.585143 0.731429a451.437714 451.437714 0 0 1-105.179428 100.205714 381.074286 381.074286 0 0 1-98.523429 48.054857 376.905143 376.905143 0 0 1-98.889143-48.347428 448.585143 448.585143 0 0 1-105.179428-100.352l-0.219429-0.292572-0.146286-0.219428a461.970286 461.970286 0 0 1-68.754285-126.976v-0.146286l-0.146286-0.219429a419.547429 419.547429 0 0 1-24.356571-142.189714V250.148571l150.089142-65.097142a369.956571 369.956571 0 0 1 147.748572-30.573715z" p-id="4562" fill="#cccccc"></path></svg>