<?xml version="1.0" standalone="no"?><!DOCTYPE svg PUBLIC "-//W3C//DTD SVG 1.1//EN" "http://www.w3.org/Graphics/SVG/1.1/DTD/svg11.dtd"><svg t="1615965749315" class="icon" viewBox="0 0 1024 1024" version="1.1" xmlns="http://www.w3.org/2000/svg" p-id="5672" xmlns:xlink="http://www.w3.org/1999/xlink" width="14" height="14"><defs><style type="text/css"></style></defs><path d="M921.6 308.224V972.8a51.2 51.2 0 0 1-51.2 51.2H153.6a51.2 51.2 0 0 1-51.2-51.2V51.2a51.2 51.2 0 0 1 51.2-51.2h459.776L921.6 308.224z" fill="#2CAD4C" p-id="5673"></path><path d="M613.5296 0.1024l306.8416 306.8416h-255.6416a51.2 51.2 0 0 1-51.2-51.2V0.1024z" fill="#8DE9B6" p-id="5674"></path><path d="M325.2736 482.816H402.432l109.9776 137.1136 109.1584-137.0624h77.1584l-150.2208 181.0432L716.8 868.0448h-77.9776l-126.4128-160.2048-127.232 160.2048H307.2l168.2944-204.1344z" fill="#FFFFFF" p-id="5675"></path></svg>