<?xml version="1.0" standalone="no"?><!DOCTYPE svg PUBLIC "-//W3C//DTD SVG 1.1//EN" "http://www.w3.org/Graphics/SVG/1.1/DTD/svg11.dtd"><svg t="1615965725501" class="icon" viewBox="0 0 1024 1024" version="1.1" xmlns="http://www.w3.org/2000/svg" p-id="5102" xmlns:xlink="http://www.w3.org/1999/xlink" width="14" height="14"><defs><style type="text/css"></style></defs><path d="M921.6 308.224V972.8a51.2 51.2 0 0 1-51.2 51.2H153.6a51.2 51.2 0 0 1-51.2-51.2V51.2a51.2 51.2 0 0 1 51.2-51.2h459.776L921.6 308.224z" fill="#EB433B" p-id="5103"></path><path d="M790.784 740.9664l-113.152-170.752a17.92 17.92 0 0 0-15.4112-7.8848 20.3264 20.3264 0 0 0-15.36 7.8848l-60.672 91.5456-135.8336-213.8624a17.92 17.92 0 0 0-15.36-7.8848 20.3264 20.3264 0 0 0-15.36 7.8848l-186.5216 293.0688a15.616 15.616 0 0 0 0 17.6128 16.896 16.896 0 0 0 15.36 8.7552h526.848a20.3776 20.3776 0 0 0 16.384-8.7552c2.6624-6.144 2.6624-13.2096-0.9216-17.6128zM625.5104 417.9968a44.032 44.032 0 1 0 88.0128 0 44.032 44.032 0 0 0-88.0128 0z" fill="#FFFFFF" p-id="5104"></path><path d="M613.5296 0.1024l306.8416 306.8416h-255.6416a51.2 51.2 0 0 1-51.2-51.2V0.1024z" fill="#FFADA4" p-id="5105"></path></svg>