<?xml version="1.0" standalone="no"?><!DOCTYPE svg PUBLIC "-//W3C//DTD SVG 1.1//EN" "http://www.w3.org/Graphics/SVG/1.1/DTD/svg11.dtd"><svg t="1618123088932" class="icon" viewBox="0 0 1024 1024" version="1.1" xmlns="http://www.w3.org/2000/svg" p-id="4365" xmlns:xlink="http://www.w3.org/1999/xlink" width="200" height="200"><defs><style type="text/css"></style></defs><path d="M588.8 0a53.76 53.76 0 0 1 37.083429 16.457143 49.517714 49.517714 0 0 1 13.824 37.010286 51.492571 51.492571 0 0 1-48.64 53.248H362.715429a51.638857 51.638857 0 0 1-50.102858-53.248A51.638857 51.638857 0 0 1 362.642286 0H588.8 588.8z m247.296 62.317714l-0.219429 0.219429c84.845714 0 125.44 50.102857 125.44 122.514286v717.604571c0 87.259429-43.300571 121.344-132.388571 121.344H122.148571C32.768 1024 0.658286 980.333714 0 902.656V184.905143C0 112.64 22.674286 62.317714 114.541714 62.317714H229.668571c-1.170286 5.778286-1.755429 11.702857-1.901714 17.554286 0 44.982857 33.060571 89.234286 76.141714 89.234286h346.843429c40.155429 0 73.874286-44.251429 73.874286-89.234286 0-5.851429-0.512-11.702857-1.682286-17.554286h113.225143zM251.757714 572.708571l156.16 161.938286a39.058286 39.058286 0 0 0 55.222857 0l281.014858-291.108571a41.106286 41.106286 0 0 0 0-57.709715 38.180571 38.180571 0 0 0-27.574858-11.849142 38.180571 38.180571 0 0 0-27.574857 11.849142L435.565714 648.045714l-128-132.534857a38.253714 38.253714 0 0 0-55.222857 0 40.740571 40.740571 0 0 0-0.658286 57.197714h0.073143z" p-id="4366" fill="#cccccc"></path></svg>