<?xml version="1.0" standalone="no"?><!DOCTYPE svg PUBLIC "-//W3C//DTD SVG 1.1//EN" "http://www.w3.org/Graphics/SVG/1.1/DTD/svg11.dtd"><svg t="1618750060251" class="icon" viewBox="0 0 1024 1024" version="1.1" xmlns="http://www.w3.org/2000/svg" p-id="2316" xmlns:xlink="http://www.w3.org/1999/xlink" width="200" height="200"><defs><style type="text/css"></style></defs><path d="M319.195429 565.394286a8.265143 8.265143 0 0 0-1.609143 2.925714l-51.492572 188.781714a32.475429 32.475429 0 0 0 8.192 31.232 32.182857 32.182857 0 0 0 31.085715 8.045715l187.538285-51.053715c0.292571 0 0.438857 0.219429 0.658286 0.219429a8.045714 8.045714 0 0 0 5.851429-2.413714l501.394285-501.321143c14.921143-14.921143 23.04-35.181714 23.04-57.344a98.011429 98.011429 0 0 0-29.257143-68.608l-47.323428-47.396572a98.157714 98.157714 0 0 0-68.608-29.257143c-22.162286 0-42.422857 8.192-57.344 23.04L320 563.712c-0.585143 0.438857-0.438857 1.170286-0.731429 1.755429z m632.539428-372.662857l-49.737143 49.737142-80.749714-81.993142 49.005714-49.078858c7.826286-7.826286 22.893714-6.656 31.744 2.194286l47.396572 47.542857a25.819429 25.819429 0 0 1 7.753143 17.993143 19.090286 19.090286 0 0 1-5.412572 13.604572zM408.356571 573.293714l361.837715-361.764571 80.749714 82.066286L489.837714 654.628571 408.356571 573.293714z m-65.828571 146.724572l26.112-95.963429 69.705143 69.705143-95.817143 26.258286z" p-id="2317" fill="#20A0FF"></path><path d="M983.478857 391.387429a34.742857 34.742857 0 0 0-34.596571 34.669714v467.382857a44.470857 44.470857 0 0 1-44.470857 44.470857H113.737143a44.470857 44.470857 0 0 1-44.470857-44.470857V130.56c0-24.502857 19.968-44.470857 44.544-44.470857h509.220571a34.596571 34.596571 0 0 0 0-69.12H108.470857C48.786286 16.969143 0.146286 65.536 0.146286 125.366857v773.339429c0 59.830857 48.64 108.397714 108.324571 108.397714h801.206857c59.830857 0 108.397714-48.566857 108.397715-108.397714V425.837714a34.669714 34.669714 0 0 0-34.596572-34.377143" p-id="2318" fill="#20A0FF"></path></svg>