<?xml version="1.0" standalone="no"?><!DOCTYPE svg PUBLIC "-//W3C//DTD SVG 1.1//EN" "http://www.w3.org/Graphics/SVG/1.1/DTD/svg11.dtd"><svg t="1618384758039" class="icon" viewBox="0 0 1199 1024" version="1.1" xmlns="http://www.w3.org/2000/svg" p-id="5022" xmlns:xlink="http://www.w3.org/1999/xlink" width="64.3994140625" height="55"><defs><style type="text/css"></style></defs><path d="M731.428571 0a146.285714 146.285714 0 0 1 145.846858 135.3728l0.438857 11.029943h146.432a146.285714 146.285714 0 0 1 146.285714 146.285714V877.714286a146.285714 146.285714 0 0 1-146.285714 146.256457H146.285714a146.285714 146.285714 0 0 1-146.285714-146.285714V292.717714a146.285714 146.285714 0 0 1 146.285714-146.285714h146.285715A146.285714 146.285714 0 0 1 438.710857 0H731.428571zM292.571429 497.664H58.426514L58.602057 892.342857a73.142857 73.142857 0 0 0 73.142857 73.142857h906.825143a73.142857 73.142857 0 0 0 73.142857-73.142857V497.664H877.714286v92.072229h-58.426515V497.664h-468.114285v92.072229H292.571429V497.664zM1038.9504 205.385143H146.285714c-40.374857 0-87.712914 32.768-87.712914 73.142857v160.797257H292.571429v-68.959086h58.514285v68.959086h468.3776v-68.959086H877.714286v68.959086h234.378971V278.498743a73.142857 73.142857 0 0 0-73.142857-73.142857zM731.428571 58.836114H438.857143l-4.768914 0.175543A73.142857 73.142857 0 0 0 365.714286 130.603886v15.652571h438.857143v-15.652571l-0.058515-0.058515-0.087771-3.364571a73.142857 73.142857 0 0 0-68.169143-68.169143L731.428571 58.806857z m73.084343 71.709257l0.058515 1.4336-0.058515-1.4336z" p-id="5023"></path></svg>