<?xml version="1.0" standalone="no"?><!DOCTYPE svg PUBLIC "-//W3C//DTD SVG 1.1//EN" "http://www.w3.org/Graphics/SVG/1.1/DTD/svg11.dtd"><svg t="1618122867109" class="icon" viewBox="0 0 1024 1024" version="1.1" xmlns="http://www.w3.org/2000/svg" p-id="3973" xmlns:xlink="http://www.w3.org/1999/xlink" width="200" height="200"><defs><style type="text/css"></style></defs><path d="M124.562108 202.094888h164.790621V128.293851C289.352729 57.784237 346.404077 0.367177 416.91369 0.001463a124.196394 124.196394 0 0 1 124.781536 126.902676l-1.682283 75.190749h159.816914c68.754187 0 124.488965 55.80792 124.488965 124.635251v165.01005h76.873033a122.879824 122.879824 0 0 1 0 245.759649h-76.79989v161.864911c0 68.82733-55.80792 124.635251-124.562108 124.635251H544.474651v-78.262745a133.412381 133.412381 0 1 0-266.678476 0V1024H124.562108C55.80792 1024 0 968.19208 0 899.364749V741.668975h86.601019a131.656955 131.656955 0 0 0 0-263.533338H0v-151.405498c0-68.754187 55.734778-124.562108 124.562108-124.562108z" p-id="3974" fill="#cccccc"></path></svg>