<?xml version="1.0" standalone="no"?><!DOCTYPE svg PUBLIC "-//W3C//DTD SVG 1.1//EN" "http://www.w3.org/Graphics/SVG/1.1/DTD/svg11.dtd"><svg t="1615965740943" class="icon" viewBox="0 0 1024 1024" version="1.1" xmlns="http://www.w3.org/2000/svg" p-id="5386" xmlns:xlink="http://www.w3.org/1999/xlink" width="14" height="14"><defs><style type="text/css"></style></defs><path d="M921.6 308.224V972.8a51.2 51.2 0 0 1-51.2 51.2H153.6a51.2 51.2 0 0 1-51.2-51.2V51.2a51.2 51.2 0 0 1 51.2-51.2h459.776L921.6 308.224z" fill="#EB433B" p-id="5387"></path><path d="M613.5296 0.1024l306.8416 306.8416h-255.6416a51.2 51.2 0 0 1-51.2-51.2V0.1024z" fill="#FFADA4" p-id="5388"></path><path d="M485.5808 387.1232a44.6464 44.6464 0 0 0-44.032 44.8512c0 30.5664 16.6912 68.608 34.304 104.2944-13.824 43.776-29.3888 90.6752-49.3056 130.304-40.8064 16.2816-77.2096 28.416-99.072 46.3872a45.8752 45.8752 0 0 0-13.6192 32.9216c0 24.576 19.8656 44.9024 44.032 44.9024a43.264 43.264 0 0 0 32.2048-13.7728c16.0768-19.6096 35.072-55.1424 52.0192-87.552 38.9632-15.6672 79.872-31.5904 119.296-41.0624 28.7744 23.552 70.4512 39.168 104.704 39.168 24.1664 0 44.032-20.224 44.032-44.8512a44.6464 44.6464 0 0 0-44.032-44.8c-27.4944 0-67.4304 9.984-97.9456 20.48a331.4688 331.4688 0 0 1-63.8976-84.6848c11.776-36.6592 25.344-73.3184 25.344-101.7344a44.6464 44.6464 0 0 0-44.032-44.8512z m0 26.88c9.8816 0 17.6128 7.8848 17.6128 17.92 0 13.4656-7.0656 38.2976-15.2576 64.9216-10.9568-25.9072-19.968-50.7904-19.968-64.8704 0-10.0352 7.7312-17.92 17.6128-17.92z m7.5776 153.4976c13.1072 21.2992 28.416 41.1136 45.6704 59.136a836.608 836.608 0 0 0-76.8 26.3168 915.456 915.456 0 0 0 31.1296-85.504v0.0512z m172.9536 57.344c9.8816 0 17.6128 7.8336 17.6128 17.92 0 10.0352-7.7312 17.92-17.6128 17.92-19.8656 0-48.0256-9.1136-70.6048-21.8624 25.9072-7.4752 54.1184-13.9776 70.6048-13.9776z m-262.8096 80.2816c-12.3904 22.528-24.6784 43.52-33.28 54.0672a16.5888 16.5888 0 0 1-12.1344 4.608 17.5616 17.5616 0 0 1-17.6128-17.92 19.456 19.456 0 0 1 4.608-12.4928c10.3936-8.1408 32.8704-17.92 58.4192-28.2624z" fill="#FFFFFF" p-id="5389"></path></svg>