<?xml version="1.0" standalone="no"?><!DOCTYPE svg PUBLIC "-//W3C//DTD SVG 1.1//EN" "http://www.w3.org/Graphics/SVG/1.1/DTD/svg11.dtd"><svg t="1618122976026" class="icon" viewBox="0 0 1024 1024" version="1.1" xmlns="http://www.w3.org/2000/svg" p-id="4169" xmlns:xlink="http://www.w3.org/1999/xlink" width="200" height="200"><defs><style type="text/css"></style></defs><path d="M166.818478 0.146263h191.751261c1.462634 14.699467 0.146263 29.983988 5.192349 44.098402a66.330432 66.330432 0 0 0 61.064951 43.805876h175.15037c12.21299-0.146263 24.718507 1.023843 36.419576-3.144662a66.257301 66.257301 0 0 0 45.487904-55.360681c0.731317-9.799645 1.243239-19.526158 1.75516-29.398935h191.385603c30.569042 0.950712 60.772425 12.286122 83.955167 32.324202 23.914059 20.330607 40.368687 49.290751 45.34164 80.371715 1.096975 5.411744 1.170107 10.969752 1.974556 16.381496v765.176751a155.98987 155.98987 0 0 0-0.731317 7.313168A134.269762 134.269762 0 0 1 870.784014 1023.989762H186.856558c-12.432385-0.146263-24.864771 0.585053-37.150893-1.608897A134.781683 134.781683 0 0 1 35.912773 887.599181V131.710153c0.43879-38.028473 18.429183-75.179365 47.535591-99.605346 23.10961-19.745553 53.093599-31.007832 83.370114-31.958544m84.686483 308.835078a26.985589 26.985589 0 0 0-16.088969 43.293954c4.899822 6.216193 12.724912 10.238435 20.769397 10.238435h523.842212c4.387901 0 8.848933 0.43879 13.163703-0.950712a27.058721 27.058721 0 0 0 14.480072-41.465661 26.327404 26.327404 0 0 0-20.257475-11.335411H255.161545a12.798044 12.798044 0 0 0-3.583452 0.219395M250.188591 511.336696a27.058721 27.058721 0 0 0 4.972954 53.239862h531.521039a26.766194 26.766194 0 0 0 24.864771-34.445021 26.985589 26.985589 0 0 0-24.864771-19.453026H256.331652a26.985589 26.985589 0 0 0-6.143061 0.731316m4.387901 201.331511a27.058721 27.058721 0 0 0-16.674023 46.292353 27.058721 27.058721 0 0 0 19.233632 7.751957h522.160184c5.265481 0 10.823488 0.219395 15.942706-1.75516a26.766194 26.766194 0 0 0 17.039681-20.330606 26.985589 26.985589 0 0 0-26.400536-32.104807H556.46406c-100.62919 0.146263-201.258379-0.073132-301.887568 0.146263zM445.230778 0.146263h158.110688a26.985589 26.985589 0 0 1-0.43879 53.971179H446.620279A26.034878 26.034878 0 0 1 426.435936 44.02527a27.204984 27.204984 0 0 1-1.974555-31.007831c4.387901-7.313168 12.432385-12.066727 20.769397-12.871176z" p-id="4170" fill="#cccccc"></path></svg>