<?xml version="1.0" standalone="no"?><!DOCTYPE svg PUBLIC "-//W3C//DTD SVG 1.1//EN" "http://www.w3.org/Graphics/SVG/1.1/DTD/svg11.dtd"><svg t="1618384616948" class="icon" viewBox="0 0 1024 1024" version="1.1" xmlns="http://www.w3.org/2000/svg" p-id="4882" xmlns:xlink="http://www.w3.org/1999/xlink" width="55" height="55"><defs><style type="text/css"></style></defs><path d="M759.383415 506.25561c34.791024 0 69.557073 7.068098 102.150244 21.154341l116.386341 50.400781v143.409951a283.697951 283.697951 0 0 1-16.483902 95.806439 306.126049 306.126049 0 0 1-45.555513 83.843122 297.809171 297.809171 0 0 1-69.706926 66.510049 261.169951 261.169951 0 0 1-86.840196 38.387512 260.745366 260.745366 0 0 1-87.064975-38.537366 299.757268 299.757268 0 0 1-69.706927-66.485073 305.701463 305.701463 0 0 1-45.205854-83.618342 282.299317 282.299317 0 0 1-16.483902-95.806439v-143.509853l116.33639-50.35083c32.568195-14.136195 67.409171-21.229268 102.17522-21.229268zM469.341659 6.743415c141.312 1.748293 252.803122 116.636098 251.079804 253.377561-1.098927 77.699122-37.163707 148.105366-97.954341 196.508097l-14.061268 10.689561c-32.093659 27.573073-92.359805 37.763122-134.568586 40.535415l-49.326829-0.574439c-179.399805 7.617561-331.076683 168.910049-333.324488 355.802536v1.723317c0 30.969756 35.265561 66.210341 66.235317 66.210342l321.486049 0.049951c10.115122 0 28.147512 3.096976 27.573073 27.872781-0.574439 21.329171-18.03239 25.175415-28.721951 25.175414H156.197463A118.734049 118.734049 0 0 1 37.463415 865.354927v-2.772293c2.247805-176.227902 113.763902-330.427317 277.029463-391.892293l18.007415-6.743414-17.457952-10.689561c-59.666732-50.126049-94.008195-121.05678-92.884292-198.755903 2.247805-137.940293 116.561171-249.406439 247.18361-247.758048z m290.066731 546.466341a210.54439 210.54439 0 0 0-83.16878 17.283122h-0.024976l-90.486634 39.186732v114.138536a231.898537 231.898537 0 0 0 13.586732 79.072781c8.916293 25.225366 21.578927 48.677463 37.71317 69.756878l0.024976 0.049951a247.832976 247.832976 0 0 0 57.943415 55.271024c19.780683 13.486829 41.459512 23.527024 64.437073 29.770927a213.641366 213.641366 0 0 0 64.237268-29.646048 247.483317 247.483317 0 0 0 57.893464-55.196098l0.049951-0.099902c16.284098-21.229268 29.046634-44.706341 38.012878-69.931708a233.022439 233.022439 0 0 0 13.611707-79.07278v-114.138537l-90.51161-39.211707a210.54439 210.54439 0 0 0-83.318634-17.233171z m-21.653853 89.412683a25.150439 25.150439 0 1 1 43.282731 25.6l-37.063805 62.638829h74.92683c19.480976 0 31.569171 21.179317 21.653853 37.937952l-59.441951 100.57678a25.150439 25.150439 0 0 1-43.282732-25.575024l37.013854-62.663805h-74.97678c-19.480976 0-31.544195-21.179317-21.628878-37.937951zM476.209951 60.515902c-107.819707-1.173854-198.506146 86.515512-199.704975 194.360196-1.773268 107.844683 86.515512 198.531122 194.38517 199.729951 107.869659 1.82322 197.906732-86.540488 199.704976-194.385171 1.773268-107.844683-86.540488-198.506146-194.385171-199.704976z" p-id="4883"></path></svg>