<?xml version="1.0" standalone="no"?><!DOCTYPE svg PUBLIC "-//W3C//DTD SVG 1.1//EN" "http://www.w3.org/Graphics/SVG/1.1/DTD/svg11.dtd"><svg t="1618126374539" class="icon" viewBox="0 0 1536 1024" version="1.1" xmlns="http://www.w3.org/2000/svg" p-id="4953" xmlns:xlink="http://www.w3.org/1999/xlink" width="300" height="200"><defs><style type="text/css"></style></defs><path d="M805.888 134.5536c264.8064 0 505.9584 257.2288 598.016 367.616-92.0576 110.1824-333.2096 367.4112-598.016 367.4112S299.9296 612.352 207.872 502.0672c92.0576-110.2848 333.2096-367.616 598.016-367.616z m0-110.3872c-328.704 0-607.0272 313.5488-700.928 432.7424a72.3968 72.3968 0 0 0 0 90.3168C198.8608 666.4192 477.184 979.968 805.888 979.968c328.6016 0 607.0272-313.5488 700.928-432.7424a72.3968 72.3968 0 0 0 0-90.3168C1412.9152 337.7152 1134.592 24.1664 805.888 24.1664z m0 367.616c59.392 0 107.52 49.3568 107.52 110.2848S865.28 612.352 805.888 612.352c-59.392 0-107.52-49.3568-107.52-110.2848s48.128-110.2848 107.52-110.2848z m0-110.2848a215.04 215.04 0 0 0-198.656 136.192 224.6656 224.6656 0 0 0 46.592 240.3328c60.7232 62.8736 153.9072 81.92 234.2912 47.8208a220.5696 220.5696 0 0 0 132.8128-203.776c0-121.856-96.256-220.5696-215.04-220.5696z" p-id="4954" fill="#20A0FF"></path></svg>