<?xml version="1.0" standalone="no"?><!DOCTYPE svg PUBLIC "-//W3C//DTD SVG 1.1//EN" "http://www.w3.org/Graphics/SVG/1.1/DTD/svg11.dtd"><svg t="1618122373710" class="icon" viewBox="0 0 1024 1024" version="1.1" xmlns="http://www.w3.org/2000/svg" p-id="3581" xmlns:xlink="http://www.w3.org/1999/xlink" width="200" height="200"><defs><style type="text/css"></style></defs><path d="M511.707429 0C249.636571 0 36.571429 213.577143 36.571429 475.136c0 141.092571 59.757714 296.667429 146.285714 383.268571v129.316572c0 19.894857 16.384 36.278857 36.352 36.278857 2.194286 0 4.096 0 6.363428-0.585143h572.854858a36.425143 36.425143 0 0 0 42.642285-35.693714v-128.146286C928.914286 772.973714 987.428571 620.251429 987.428571 475.136 986.916571 213.065143 773.266286 0 511.707429 0zM398.774857 955.465143a34.011429 34.011429 0 0 1-67.949714 0v-101.229714a34.011429 34.011429 0 0 1 68.022857 0v101.229714z m-56.685714-442.294857a86.454857 86.454857 0 0 1-86.674286-86.601143c0-47.981714 38.765714-86.674286 86.674286-86.674286s86.601143 38.765714 86.601143 86.674286-39.277714 86.601143-86.601143 86.601143z m209.993143 442.294857a34.011429 34.011429 0 0 1-67.949715 0v-101.229714a34.011429 34.011429 0 0 1 68.022858 0v101.229714z m143.945143 0a34.011429 34.011429 0 0 1-67.949715 0v-101.229714a34.011429 34.011429 0 0 1 68.022857 0v101.229714z m7.606857-442.294857a86.454857 86.454857 0 0 1-86.674286-86.601143c0-47.981714 38.765714-86.674286 86.674286-86.674286s86.601143 38.765714 86.601143 86.674286-39.131429 86.601143-86.601143 86.601143z" p-id="3582" fill="#cccccc"></path></svg>