<?xml version="1.0" standalone="no"?><!DOCTYPE svg PUBLIC "-//W3C//DTD SVG 1.1//EN" "http://www.w3.org/Graphics/SVG/1.1/DTD/svg11.dtd"><svg t="1615965745377" class="icon" viewBox="0 0 1024 1024" version="1.1" xmlns="http://www.w3.org/2000/svg" p-id="5528" xmlns:xlink="http://www.w3.org/1999/xlink" width="14" height="14"><defs><style type="text/css"></style></defs><path d="M921.6 308.224V972.8a51.2 51.2 0 0 1-51.2 51.2H153.6a51.2 51.2 0 0 1-51.2-51.2V51.2a51.2 51.2 0 0 1 51.2-51.2h459.776L921.6 308.224z" fill="#7F8793" p-id="5529"></path><path d="M613.5296 0.1024l306.8416 306.8416h-255.6416a51.2 51.2 0 0 1-51.2-51.2V0.1024z" fill="#D3DCE6" p-id="5530"></path><path d="M256 460.8m25.6 0l460.8 0q25.6 0 25.6 25.6l0 0q0 25.6-25.6 25.6l-460.8 0q-25.6 0-25.6-25.6l0 0q0-25.6 25.6-25.6Z" fill="#FFFFFF" p-id="5531"></path><path d="M256 614.4m25.6 0l460.8 0q25.6 0 25.6 25.6l0 0q0 25.6-25.6 25.6l-460.8 0q-25.6 0-25.6-25.6l0 0q0-25.6 25.6-25.6Z" fill="#FFFFFF" p-id="5532"></path><path d="M256 768m25.6 0l256 0q25.6 0 25.6 25.6l0 0q0 25.6-25.6 25.6l-256 0q-25.6 0-25.6-25.6l0 0q0-25.6 25.6-25.6Z" fill="#FFFFFF" p-id="5533"></path></svg>