<?xml version="1.0" standalone="no"?><!DOCTYPE svg PUBLIC "-//W3C//DTD SVG 1.1//EN" "http://www.w3.org/Graphics/SVG/1.1/DTD/svg11.dtd"><svg t="1615965732291" class="icon" viewBox="0 0 1024 1024" version="1.1" xmlns="http://www.w3.org/2000/svg" p-id="5244" xmlns:xlink="http://www.w3.org/1999/xlink" width="14" height="14"><defs><style type="text/css"></style></defs><path d="M921.6 308.224V972.8a51.2 51.2 0 0 1-51.2 51.2H153.6a51.2 51.2 0 0 1-51.2-51.2V51.2a51.2 51.2 0 0 1 51.2-51.2h459.776L921.6 308.224z" fill="#346EC4" p-id="5245"></path><path d="M613.5296 0.1024l306.8416 306.8416h-255.6416a51.2 51.2 0 0 1-51.2-51.2V0.1024z" fill="#9AB8FF" p-id="5246"></path><path d="M307.2 479.3856h57.344l58.2144 235.8784h1.7408l61.2352-235.8784h52.5312L599.552 715.264h1.7408l58.2144-235.8784H716.8l-89.4976 310.1184H573.44l-60.3648-233.216h-1.7408L450.56 789.504H396.288z" fill="#FFFFFF" p-id="5247"></path></svg>