<?xml version="1.0" standalone="no"?><!DOCTYPE svg PUBLIC "-//W3C//DTD SVG 1.1//EN" "http://www.w3.org/Graphics/SVG/1.1/DTD/svg11.dtd"><svg t="1616123390546" class="icon" viewBox="0 0 1024 1024" version="1.1" xmlns="http://www.w3.org/2000/svg" p-id="2421" xmlns:xlink="http://www.w3.org/1999/xlink" width="200" height="200"><defs><style type="text/css"></style></defs><path d="M863.790545 1024H157.905455C71.982545 1024 0 954.344727 0 866.094545V157.905455C0 71.982545 69.655273 0 157.905455 0h708.18909C952.017455 0 1024 69.655273 1024 157.905455v708.18909C1021.672727 952.017455 952.017455 1024 863.790545 1024z" fill="#20A0FF" p-id="2422"></path><path d="M275.688727 718.778182c-9.844364 0-19.688727-9.774545-19.688727-19.525818 0-11.682909 9.844364-19.502545 19.688727-19.502546h19.688728c9.844364 0 19.688727 7.819636 19.688727 19.502546 0 11.706182-7.866182 19.525818-19.688727 19.525818h-19.688728z m141.777455-374.528c-9.844364 0-19.688727-7.819636-19.688727-19.502546 0-9.774545 9.844364-19.525818 19.688727-19.525818h330.845091c9.844364 0 19.688727 9.774545 19.688727 19.525818 0 11.682909-9.844364 19.502545-19.688727 19.502546H417.466182z m-141.777455 0c-9.844364 0-19.688727-7.819636-19.688727-19.502546 0-9.774545 9.844364-19.525818 19.688727-19.525818h19.688728c9.844364 0 19.688727 9.774545 19.688727 19.525818 0 11.682909-7.866182 19.502545-19.688727 19.502546h-19.688728z m141.777455 124.834909c-9.844364 0-19.688727-7.796364-19.688727-19.502546 0-11.706182 9.844364-19.502545 19.688727-19.502545h330.845091c9.844364 0 19.688727 7.796364 19.688727 19.502545 0 9.751273-9.844364 19.502545-19.688727 19.502546H417.466182z m-141.777455 0c-9.844364 0-19.688727-7.796364-19.688727-19.502546 0-11.706182 9.844364-19.502545 19.688727-19.502545h19.688728c9.844364 0 19.688727 7.796364 19.688727 19.502545 0 9.751273-7.866182 19.502545-19.688727 19.502546h-19.688728z m141.777455 124.834909c-9.844364 0-19.688727-7.796364-19.688727-19.502545 0-11.706182 9.844364-19.502545 19.688727-19.502546h330.845091c9.844364 0 19.688727 7.796364 19.688727 19.502546 0 9.774545-9.844364 19.502545-19.688727 19.502545H417.466182z m-141.777455 0c-9.844364 0-19.688727-7.796364-19.688727-19.502545 0-11.706182 9.844364-19.502545 19.688727-19.502546h19.688728c9.844364 0 19.688727 7.796364 19.688727 19.502546 0 9.774545-7.866182 19.502545-19.688727 19.502545h-19.688728z m141.777455 124.858182c-9.844364 0-19.688727-9.774545-19.688727-19.525818 0-11.682909 9.844364-19.502545 19.688727-19.502546h330.845091c9.844364 0 19.688727 7.819636 19.688727 19.502546 0 11.706182-9.844364 19.525818-19.688727 19.525818H417.466182z" fill="#FFFFFF" p-id="2423"></path></svg>