<?xml version="1.0" standalone="no"?><!DOCTYPE svg PUBLIC "-//W3C//DTD SVG 1.1//EN" "http://www.w3.org/Graphics/SVG/1.1/DTD/svg11.dtd"><svg t="1616123408532" class="icon" viewBox="0 0 1024 1024" version="1.1" xmlns="http://www.w3.org/2000/svg" p-id="2675" xmlns:xlink="http://www.w3.org/1999/xlink" width="200" height="200"><defs><style type="text/css"></style></defs><path d="M863.790545 1024H157.905455C71.982545 1024 0 954.344727 0 866.094545V157.905455C0 71.982545 69.655273 0 157.905455 0h708.18909C952.017455 0 1024 69.655273 1024 157.905455v708.18909C1021.672727 952.017455 952.017455 1024 863.790545 1024z" fill="#FD8B3C" p-id="2676"></path><path d="M706.490182 256a73.355636 73.355636 0 0 1 73.146182 73.146182v365.707636A73.355636 73.355636 0 0 1 706.490182 768H340.782545a73.355636 73.355636 0 0 1-73.146181-73.146182V329.146182A73.355636 73.355636 0 0 1 340.782545 256h365.707637z m0 36.561455H340.782545c-18.292364 0-32.907636 14.638545-36.584727 32.930909v369.361454c0 18.292364 14.638545 32.907636 32.930909 36.584727h369.361455c18.292364 0 32.907636-14.638545 36.584727-32.930909V329.146182c0-18.292364-14.638545-32.907636-32.930909-36.584727h-3.653818z m-171.892364 226.746181c7.330909-7.307636 18.292364-7.307636 29.277091 0l65.815273 69.492364c7.307636 7.307636 7.307636 21.946182 0 29.253818l-65.815273 69.492364c-7.330909 7.307636-18.292364 7.307636-29.277091 0-7.307636-7.307636-7.307636-21.946182 0-29.253818l32.930909-36.584728H432.174545c-10.961455 0-18.269091-7.307636-18.26909-18.269091 0-10.984727 7.307636-18.292364 18.26909-18.292363h135.33091L534.574545 548.538182c-7.307636-10.961455-7.307636-21.922909 0-29.253818z m-21.922909-182.853818c7.307636 7.307636 7.307636 21.946182 0 29.253818l-32.930909 36.584728h135.330909c10.961455 0 18.269091 7.307636 18.269091 18.269091 0 10.984727-7.307636 18.292364-18.269091 18.292363h-135.330909l32.930909 36.584727c7.307636 7.307636 7.307636 21.922909 0 29.253819-7.330909 7.307636-21.946182 7.307636-29.277091 0l-65.815273-73.146182c-7.307636-7.307636-7.307636-21.946182 0-29.253818L483.374545 332.8c7.330909-7.307636 21.946182-7.307636 29.277091 3.653818z" fill="#FFFFFF" p-id="2677"></path></svg>