<?xml version="1.0" standalone="no"?><!DOCTYPE svg PUBLIC "-//W3C//DTD SVG 1.1//EN" "http://www.w3.org/Graphics/SVG/1.1/DTD/svg11.dtd"><svg t="1616123402211" class="icon" viewBox="0 0 1024 1024" version="1.1" xmlns="http://www.w3.org/2000/svg" p-id="2548" xmlns:xlink="http://www.w3.org/1999/xlink" width="200" height="200"><defs><style type="text/css"></style></defs><path d="M863.790545 1024H157.905455C71.982545 1024 0 954.344727 0 866.094545V157.905455C0 71.982545 69.655273 0 157.905455 0h708.18909C952.017455 0 1024 69.655273 1024 157.905455v708.18909C1021.672727 952.017455 952.017455 1024 863.790545 1024z" fill="#DD3E3E" p-id="2549"></path><path d="M351.604364 256H584.145455a23.04 23.04 0 0 1 14.94109 6.4l142.917819 142.941091a19.362909 19.362909 0 0 1 6.4 14.917818V716.8c0 14.941091-6.4 27.741091-14.917819 36.258909-8.541091 8.541091-23.482182 14.941091-36.282181 14.941091H353.745455a51.456 51.456 0 0 1-36.25891-14.941091C306.804364 742.4 302.545455 729.6 302.545455 714.658909V307.2c0-14.941091 6.4-27.741091 14.94109-36.258909 6.4-8.541091 19.2-14.941091 34.117819-14.941091z m119.482181 330.658909c6.4 4.282182 6.4 10.682182 4.25891 17.082182-4.258909 6.4-10.658909 6.4-17.05891 4.258909l-76.8-46.941091c-6.4-4.258909-6.4-14.917818 0-19.2l76.8-46.917818c6.4-4.282182 12.8-2.141091 17.05891 4.258909 4.258909 4.258909 2.141091 12.8-4.25891 17.058909l-59.74109 36.282182 59.74109 34.117818z m115.2 21.341091c-6.4 4.258909-12.8 2.141091-17.082181-4.258909-4.258909-6.4-2.117818-12.8 4.282181-17.082182l59.717819-36.258909-59.717819-36.258909c-6.4-4.282182-6.4-10.682182-4.282181-17.082182 4.282182-6.4 10.682182-8.517818 17.082181-4.258909l76.8 46.941091c8.517818 4.258909 8.517818 14.917818 0 19.2l-76.8 49.058909z m-44.8-138.658909c2.117818-6.4 8.517818-8.541091 14.917819-6.4 6.4 2.117818 8.541091 8.517818 6.4 14.917818l-59.717819 155.741091c-2.141091 6.4-8.541091 8.541091-14.94109 6.4-6.4-2.141091-8.541091-8.541091-6.4-14.941091l59.74109-155.717818z m147.2-64l-91.74109-91.741091V384c0 6.4 2.141091 10.658909 6.4 14.941091a19.362909 19.362909 0 0 0 14.94109 6.4h70.4z m-115.2-110.941091h-221.882181c-4.258909 0-6.4 2.141091-8.517819 4.258909-2.141091 2.141091-4.282182 6.4-4.282181 8.541091v407.458909c0 4.282182 2.141091 6.4 4.282181 8.541091 2.117818 2.141091 6.4 4.258909 8.517819 4.258909h343.482181c4.258909 0 6.4-2.117818 8.517819-4.258909 2.141091-2.141091 4.282182-6.4 4.282181-8.541091V428.8h-89.6c-12.8 0-23.482182-4.258909-32-12.8a42.123636 42.123636 0 0 1-12.8-29.858909V294.4z" fill="#FFFFFF" p-id="2550"></path></svg>